<svg width="352" height="80" viewBox="0 0 352 80" fill="none" xmlns="http://www.w3.org/2000/svg">
<path d="M85.795 11.2987C85.7793 11.1568 85.7556 11.007 85.7556 10.8493C85.7556 10.6996 85.7635 10.5498 85.795 10.4V0.552694C78.8885 -0.101687 71.7692 0.655188 65.5486 3.01254C59.738 5.22009 54.7237 8.8389 51.4676 14.0345V70.13C56.5371 66.7477 61.7169 63.9646 67.0387 62.0724C73.1016 59.9122 79.3379 58.8873 85.795 59.3997V11.2987ZM45.4993 69.5466V13.9399C42.3693 8.42104 37.3077 4.73128 31.5996 2.53949C25.1268 0.0638793 17.8497 -0.495893 11.5109 0.402896L11.1719 59.5732C18.0862 59.3209 24.8587 60.2039 31.2212 62.2853C36.2907 63.9331 41.0921 66.3535 45.4993 69.5466Z" fill="#343DFF"/>
<path d="M5.21928 62.4826L5.49523 13.8455H0V75.7358C7.5451 73.7884 15.1138 72.5506 22.7457 72.4954C29.7862 72.456 36.8267 73.4336 43.883 75.8225C39.4994 72.2746 34.6113 69.6571 29.392 67.962C22.8245 65.8175 15.7209 65.108 8.436 65.7308C6.78822 65.8648 5.35331 64.6428 5.2114 63.0029C5.19563 62.8216 5.19563 62.6481 5.21928 62.4826ZM54.361 75.3652C60.96 73.2917 67.5432 72.4402 74.1343 72.4796C81.7583 72.519 89.3349 73.7726 96.88 75.72V13.8455H91.7711V62.7506C91.7711 64.3984 90.4308 65.7387 88.783 65.7387C88.5465 65.7387 88.3178 65.715 88.0971 65.6599C81.5612 64.6349 75.2302 65.4864 69.0491 67.6861C64.0663 69.46 59.1782 72.1169 54.361 75.3652Z" fill="#343DFF"/>
<path d="M85.795 11.2987C85.7793 11.1568 85.7556 11.007 85.7556 10.8493C85.7556 10.6996 85.7635 10.5498 85.795 10.4V0.552694C78.8885 -0.101687 71.7692 0.655188 65.5486 3.01254C59.738 5.22009 54.7237 8.8389 51.4676 14.0345V70.13C56.5371 66.7477 61.7169 63.9646 67.0387 62.0724C73.1016 59.9122 79.3379 58.8873 85.795 59.3997V11.2987ZM45.4993 69.5466V13.9399C42.3693 8.42104 37.3077 4.73128 31.5996 2.53949C25.1268 0.0638793 17.8497 -0.495893 11.5109 0.402896L11.1719 59.5732C18.0862 59.3209 24.8587 60.2039 31.2212 62.2853C36.2907 63.9331 41.0921 66.3535 45.4993 69.5466Z" fill="#343DFF"/>
<path d="M5.21928 62.4826L5.49523 13.8455H0V75.7358C7.5451 73.7884 15.1138 72.5506 22.7457 72.4954C29.7862 72.456 36.8267 73.4336 43.883 75.8225C39.4994 72.2746 34.6113 69.6571 29.392 67.962C22.8245 65.8175 15.7209 65.108 8.436 65.7308C6.78822 65.8648 5.35331 64.6428 5.2114 63.0029C5.19563 62.8216 5.19563 62.6481 5.21928 62.4826ZM54.361 75.3652C60.96 73.2917 67.5432 72.4402 74.1343 72.4796C81.7583 72.519 89.3349 73.7726 96.88 75.72V13.8455H91.7711V62.7506C91.7711 64.3984 90.4308 65.7387 88.783 65.7387C88.5465 65.7387 88.3178 65.715 88.0971 65.6599C81.5612 64.6349 75.2302 65.4864 69.0491 67.6861C64.0663 69.46 59.1782 72.1169 54.361 75.3652Z" fill="#343DFF"/>
<path d="M132.625 5.5625H151.844V34H145.34V10.6406H138.152L137.527 23.4727C137.358 26.9492 136.74 29.651 135.672 31.5781C134.604 33.4922 132.664 34.4492 129.852 34.4492C129.24 34.4492 128.719 34.4167 128.289 34.3516C127.872 34.2995 127.488 34.2214 127.137 34.1172V28.4727C127.384 28.5638 127.612 28.6289 127.82 28.668C128.029 28.707 128.257 28.7266 128.504 28.7266C129.676 28.7266 130.49 28.2839 130.945 27.3984C131.414 26.5 131.707 24.957 131.824 22.7695L132.625 5.5625ZM156.18 34V14.8594H162.449V23.9414C162.449 24.3841 162.443 24.8203 162.43 25.25C162.417 25.6667 162.391 26.1029 162.352 26.5586H162.488C162.697 26.1289 162.872 25.7643 163.016 25.4648C163.172 25.1654 163.406 24.6966 163.719 24.0586L168.621 14.8594H175.145V34H168.875V24.8398C168.875 24.3841 168.882 23.9544 168.895 23.5508C168.908 23.1471 168.921 22.7174 168.934 22.2617H168.777C168.595 22.6914 168.432 23.0495 168.289 23.3359C168.146 23.6224 167.918 24.0846 167.605 24.7227L162.703 34H156.18ZM185.105 19.8203C185.105 20.9401 185.34 21.7409 185.809 22.2227C186.29 22.7044 187.156 22.9453 188.406 22.9453C189.461 22.9453 190.438 22.8672 191.336 22.7109C192.234 22.5417 193.133 22.3268 194.031 22.0664V26.5C193.12 26.7604 192.052 26.9883 190.828 27.1836C189.604 27.3659 188.198 27.457 186.609 27.457C184.044 27.457 182.104 26.9167 180.789 25.8359C179.487 24.7422 178.836 22.9583 178.836 20.4844V14.8594H185.105V19.8203ZM197.176 14.8594V34H190.906V14.8594H197.176ZM201.258 14.8594H207.527V22.0078H213.66V14.8594H219.93V34H213.66V26.5781H207.527V34H201.258V14.8594ZM223.074 28.4336C223.074 26.4154 223.868 24.8529 225.457 23.7461C227.046 22.6393 229.109 22.0794 231.648 22.0664H235.965V20.9141C235.965 20.0547 235.75 19.3776 235.32 18.8828C234.891 18.388 234.161 18.1406 233.133 18.1406C232.117 18.1406 231.368 18.349 230.887 18.7656C230.405 19.1823 230.164 19.7357 230.164 20.4258V20.7773L224.246 20.7578V20.3672C224.246 18.5833 225.086 17.1315 226.766 16.0117C228.445 14.8919 230.691 14.332 233.504 14.332C236.355 14.332 238.523 14.8724 240.008 15.9531C241.492 17.0339 242.234 18.7461 242.234 21.0898V29.6445C242.234 30.4388 242.306 31.1875 242.449 31.8906C242.592 32.5938 242.794 33.1992 243.055 33.707V34H236.863C236.681 33.6875 236.531 33.3034 236.414 32.8477C236.297 32.3919 236.212 31.9297 236.16 31.4609C235.743 32.1901 234.982 32.8477 233.875 33.4336C232.768 34.0195 231.388 34.3125 229.734 34.3125C227.742 34.3125 226.134 33.8242 224.91 32.8477C223.686 31.8581 223.074 30.3867 223.074 28.4336ZM229.324 27.9258C229.324 28.7591 229.559 29.4036 230.027 29.8594C230.496 30.3151 231.206 30.543 232.156 30.543C233.185 30.543 234.077 30.1979 234.832 29.5078C235.587 28.8177 235.965 28.0104 235.965 27.0859V25.4453H233.191C231.876 25.4453 230.9 25.6471 230.262 26.0508C229.637 26.4544 229.324 27.0794 229.324 27.9258ZM251.746 34H245.047L249.676 26.2656L256.102 26.5195L251.746 34ZM257.938 34V27.6719H254.285L253.309 27.5156C250.874 27.5156 248.999 26.9427 247.684 25.7969C246.382 24.638 245.73 23.0885 245.73 21.1484C245.73 19.2344 246.382 17.7109 247.684 16.5781C248.999 15.4323 250.874 14.8594 253.309 14.8594H264.207V34H257.938ZM254.773 23.8242H257.938V18.707H254.773C253.732 18.707 252.996 18.9544 252.566 19.4492C252.137 19.931 251.922 20.5365 251.922 21.2656C251.922 22.0208 252.137 22.6393 252.566 23.1211C252.996 23.5898 253.732 23.8242 254.773 23.8242ZM134.539 64.3516V64.9766C134.539 66.6432 134.878 67.8997 135.555 68.7461C136.245 69.5794 137.254 69.9961 138.582 69.9961C139.897 69.9961 140.9 69.5794 141.59 68.7461C142.28 67.8997 142.625 66.6367 142.625 64.957V64.3516C142.625 62.776 142.286 61.5781 141.609 60.7578C140.945 59.9245 139.962 59.5078 138.66 59.5078C137.306 59.5078 136.277 59.9245 135.574 60.7578C134.884 61.5781 134.539 62.776 134.539 64.3516ZM140.223 54.9375C142.918 54.9375 145.053 55.7904 146.629 57.4961C148.217 59.2018 149.012 61.4805 149.012 64.332V64.9766C149.012 67.8802 148.042 70.1979 146.102 71.9297C144.174 73.6615 141.668 74.5273 138.582 74.5273C135.418 74.5273 132.892 73.6549 131.004 71.9102C129.116 70.1523 128.172 67.3594 128.172 63.5312V61.1289C128.172 56.6107 128.992 53.1992 130.633 50.8945C132.273 48.5898 134.904 47.1641 138.523 46.6172C140.828 46.2526 142.156 45.9271 142.508 45.6406C142.872 45.3542 143.074 45.0091 143.113 44.6055H148.309C148.309 46.6628 147.781 48.2122 146.727 49.2539C145.685 50.2956 143.719 51.0117 140.828 51.4023C137.951 51.7799 135.926 52.4896 134.754 53.5312C133.595 54.5729 132.951 56.2201 132.82 58.4727H133.016C133.654 57.3789 134.585 56.5195 135.809 55.8945C137.033 55.2565 138.504 54.9375 140.223 54.9375ZM152.117 74V54.8594H158.387V63.9414C158.387 64.3841 158.38 64.8203 158.367 65.25C158.354 65.6667 158.328 66.1029 158.289 66.5586H158.426C158.634 66.1289 158.81 65.7643 158.953 65.4648C159.109 65.1654 159.344 64.6966 159.656 64.0586L164.559 54.8594H171.082V74H164.812V64.8398C164.812 64.3841 164.819 63.9544 164.832 63.5508C164.845 63.1471 164.858 62.7174 164.871 62.2617H164.715C164.533 62.6914 164.37 63.0495 164.227 63.3359C164.083 63.6224 163.855 64.0846 163.543 64.7227L158.641 74H152.117ZM180.672 64.3516V64.9766C180.672 66.6432 181.01 67.8997 181.688 68.7461C182.378 69.5794 183.387 69.9961 184.715 69.9961C186.03 69.9961 187.033 69.5794 187.723 68.7461C188.413 67.8997 188.758 66.6367 188.758 64.957V64.3516C188.758 62.776 188.419 61.5781 187.742 60.7578C187.078 59.9245 186.095 59.5078 184.793 59.5078C183.439 59.5078 182.41 59.9245 181.707 60.7578C181.017 61.5781 180.672 62.776 180.672 64.3516ZM186.355 54.9375C189.051 54.9375 191.186 55.7904 192.762 57.4961C194.35 59.2018 195.145 61.4805 195.145 64.332V64.9766C195.145 67.8802 194.174 70.1979 192.234 71.9297C190.307 73.6615 187.801 74.5273 184.715 74.5273C181.551 74.5273 179.025 73.6549 177.137 71.9102C175.249 70.1523 174.305 67.3594 174.305 63.5312V61.1289C174.305 56.6107 175.125 53.1992 176.766 50.8945C178.406 48.5898 181.036 47.1641 184.656 46.6172C186.961 46.2526 188.289 45.9271 188.641 45.6406C189.005 45.3542 189.207 45.0091 189.246 44.6055H194.441C194.441 46.6628 193.914 48.2122 192.859 49.2539C191.818 50.2956 189.852 51.0117 186.961 51.4023C184.083 51.7799 182.059 52.4896 180.887 53.5312C179.728 54.5729 179.083 56.2201 178.953 58.4727H179.148C179.786 57.3789 180.717 56.5195 181.941 55.8945C183.165 55.2565 184.637 54.9375 186.355 54.9375ZM205.75 59.5273L205.574 64.0781C205.457 67.8151 204.923 70.4714 203.973 72.0469C203.035 73.6094 201.421 74.3906 199.129 74.3906C198.647 74.3906 198.191 74.3646 197.762 74.3125C197.332 74.2734 196.98 74.2018 196.707 74.0977V69.0391C196.889 69.0911 197.065 69.1367 197.234 69.1758C197.417 69.2018 197.612 69.2148 197.82 69.2148C198.654 69.2148 199.227 68.7982 199.539 67.9648C199.852 67.1185 200.047 65.6797 200.125 63.6484L200.418 54.8594H216.844V74H210.574V59.5273H205.75ZM220.945 74V54.8594H227.215V63.9414C227.215 64.3841 227.208 64.8203 227.195 65.25C227.182 65.6667 227.156 66.1029 227.117 66.5586H227.254C227.462 66.1289 227.638 65.7643 227.781 65.4648C227.938 65.1654 228.172 64.6966 228.484 64.0586L233.387 54.8594H239.91V74H233.641V64.8398C233.641 64.3841 233.647 63.9544 233.66 63.5508C233.673 63.1471 233.686 62.7174 233.699 62.2617H233.543C233.361 62.6914 233.198 63.0495 233.055 63.3359C232.911 63.6224 232.684 64.0846 232.371 64.7227L227.469 74H220.945ZM243.016 64.7031V64.0781C243.016 61.1094 243.973 58.7331 245.887 56.9492C247.801 55.1654 250.32 54.2734 253.445 54.2734C256.57 54.2734 259.083 55.1654 260.984 56.9492C262.898 58.7331 263.855 61.1094 263.855 64.0781V64.7031C263.855 67.6849 262.898 70.0677 260.984 71.8516C259.083 73.6354 256.57 74.5273 253.445 74.5273C250.307 74.5273 247.781 73.6354 245.867 71.8516C243.966 70.0677 243.016 67.6849 243.016 64.7031ZM249.402 63.8047V64.957C249.402 66.5326 249.747 67.7695 250.438 68.668C251.128 69.5534 252.124 69.9961 253.426 69.9961C254.741 69.9961 255.743 69.5534 256.434 68.668C257.124 67.7695 257.469 66.5326 257.469 64.957V63.8047C257.469 62.2552 257.117 61.0443 256.414 60.1719C255.724 59.2865 254.728 58.8438 253.426 58.8438C252.137 58.8438 251.141 59.2865 250.438 60.1719C249.747 61.0443 249.402 62.2552 249.402 63.8047ZM265.516 59.5273V54.8594H283.543V59.5273H277.664V74H271.395V59.5273H265.516ZM285.164 64.7031V64.0781C285.164 61.1094 286.095 58.7396 287.957 56.9688C289.819 55.1849 292.26 54.293 295.281 54.293C298.289 54.293 300.62 55.1393 302.273 56.832C303.927 58.5117 304.754 60.8359 304.754 63.8047V65.7188H288.895V62.3008H298.641V62.0273C298.641 61.0768 298.354 60.2826 297.781 59.6445C297.208 59.0065 296.362 58.6875 295.242 58.6875C293.992 58.6875 293.042 59.1432 292.391 60.0547C291.753 60.9531 291.434 62.112 291.434 63.5312V64.8594C291.434 66.487 291.779 67.763 292.469 68.6875C293.172 69.599 294.201 70.0547 295.555 70.0547C296.518 70.0547 297.332 69.8398 297.996 69.4102C298.673 68.9805 299.207 68.4401 299.598 67.7891L304.539 69.7812C303.914 71.2266 302.859 72.3789 301.375 73.2383C299.891 74.0977 297.97 74.5273 295.613 74.5273C292.332 74.5273 289.767 73.6419 287.918 71.8711C286.082 70.0872 285.164 67.6979 285.164 64.7031ZM320.652 74L314.852 65.3281L319.363 61.6172L327.938 74H320.652ZM310.867 61.9883H315.633L320.164 54.8398H326.98L319.148 66.5977H310.867V61.9883ZM313.992 54.8398V74H307.703V54.8398H313.992ZM328.621 68.4336C328.621 66.4154 329.415 64.8529 331.004 63.7461C332.592 62.6393 334.656 62.0794 337.195 62.0664H341.512V60.9141C341.512 60.0547 341.297 59.3776 340.867 58.8828C340.438 58.388 339.708 58.1406 338.68 58.1406C337.664 58.1406 336.915 58.349 336.434 58.7656C335.952 59.1823 335.711 59.7357 335.711 60.4258V60.7773L329.793 60.7578V60.3672C329.793 58.5833 330.633 57.1315 332.312 56.0117C333.992 54.8919 336.238 54.332 339.051 54.332C341.902 54.332 344.07 54.8724 345.555 55.9531C347.039 57.0339 347.781 58.7461 347.781 61.0898V69.6445C347.781 70.4388 347.853 71.1875 347.996 71.8906C348.139 72.5938 348.341 73.1992 348.602 73.707V74H342.41C342.228 73.6875 342.078 73.3034 341.961 72.8477C341.844 72.3919 341.759 71.9297 341.707 71.4609C341.29 72.1901 340.529 72.8477 339.422 73.4336C338.315 74.0195 336.935 74.3125 335.281 74.3125C333.289 74.3125 331.681 73.8242 330.457 72.8477C329.233 71.8581 328.621 70.3867 328.621 68.4336ZM334.871 67.9258C334.871 68.7591 335.105 69.4036 335.574 69.8594C336.043 70.3151 336.753 70.543 337.703 70.543C338.732 70.543 339.624 70.1979 340.379 69.5078C341.134 68.8177 341.512 68.0104 341.512 67.0859V65.4453H338.738C337.423 65.4453 336.447 65.6471 335.809 66.0508C335.184 66.4544 334.871 67.0794 334.871 67.9258Z" fill="#343DFF"/>
</svg>
